<?xml version="1.0" standalone="no"?>
<!DOCTYPE svg PUBLIC "-//W3C//DTD SVG 20010904//EN"
 "http://www.w3.org/TR/2001/REC-SVG-20010904/DTD/svg10.dtd">
<svg version="1.0" xmlns="http://www.w3.org/2000/svg"
 width="550.000000pt" height="550.000000pt" viewBox="0 0 550.000000 550.000000"
 preserveAspectRatio="xMidYMid meet">
<metadata>
Created by potrace 1.14, written by Peter Selinger 2001-2017
</metadata>
<g transform="translate(0.000000,550.000000) scale(0.100000,-0.100000)"
fill="#000000" stroke="none">
<path d="M794 5389 c-98 -31 -194 -129 -225 -231 -6 -20 -10 -179 -10 -400 0
-340 -1 -368 -17 -369 -9 -1 -66 -3 -127 -4 -60 -2 -116 -3 -123 -4 -10 -1
-12 -93 -10 -443 l3 -443 415 0 415 0 2 270 c1 155 7 289 13 315 15 57 53 137
135 281 36 63 65 117 65 121 0 4 -37 -6 -82 -24 -144 -53 -214 -68 -338 -71
l-115 -2 -3 335 c-2 374 -1 382 67 427 l34 23 587 0 588 0 4 -122 c3 -99 9
-133 26 -172 44 -98 128 -176 236 -220 46 -18 79 -21 353 -26 l302 -5 31 -30
c17 -16 34 -43 38 -60 5 -16 8 -414 7 -884 0 -673 2 -854 12 -858 7 -3 59 6
115 19 l103 23 0 895 0 895 -25 50 c-33 67 -93 125 -166 161 l-59 29 -305 5
c-192 4 -314 10 -330 17 -33 15 -76 61 -89 96 -6 16 -11 94 -11 175 0 169 -11
205 -70 234 -32 17 -87 18 -710 17 -641 0 -678 -1 -736 -20z m316 -1105 c0 -3
-29 -54 -63 -113 -76 -127 -101 -170 -157 -276 -104 -193 -163 -255 -245 -255
-114 0 -227 136 -229 275 -1 49 3 68 18 84 18 20 20 20 45 4 14 -9 59 -42 98
-75 40 -32 79 -58 87 -58 15 0 59 50 148 170 73 98 129 154 208 206 60 40 90
53 90 38z"/>
<path d="M3480 4903 c0 -4 20 -55 44 -113 42 -98 117 -339 131 -422 6 -31 16
-43 78 -84 269 -177 516 -433 667 -689 101 -172 200 -418 230 -570 6 -33 16
-77 21 -97 l9 -37 58 4 c31 2 64 6 72 8 8 3 67 15 130 27 63 11 119 25 123 29
17 17 -28 238 -77 383 -132 395 -287 639 -601 954 -182 182 -318 291 -521 417
-185 115 -364 208 -364 190z"/>
<path d="M1432 4163 c-130 -64 -129 -290 1 -360 29 -16 78 -18 592 -18 515 0
563 2 592 18 110 59 146 202 77 299 -58 82 -27 78 -664 78 -503 0 -569 -2
-598 -17z"/>
<path d="M1215 3219 c-128 -64 -128 -64 -545 -69 l-385 -5 -3 -431 -2 -432 24
-6 c28 -7 783 -7 801 0 8 3 12 86 13 290 1 156 7 305 12 330 6 25 28 80 49
123 56 110 92 204 84 212 -5 4 -26 -1 -48 -12z m-214 -363 c-170 -329 -210
-390 -281 -426 -71 -36 -163 -17 -222 46 -73 78 -108 239 -61 285 l21 22 106
-82 105 -81 114 142 c124 155 198 230 273 278 26 16 50 30 52 30 2 0 -46 -96
-107 -214z"/>
<path d="M1485 2950 c-59 -7 -83 -21 -114 -65 -67 -98 -45 -243 46 -305 l37
-25 581 0 582 0 35 27 c48 37 78 104 78 173 0 95 -56 172 -141 195 -42 12
-1009 12 -1104 0z"/>
<path d="M3674 2881 c-81 -14 -114 -52 -114 -135 0 -24 -6 -48 -12 -53 -7 -5
-56 -24 -108 -42 -52 -18 -119 -46 -149 -62 -56 -30 -81 -36 -81 -20 0 16 -83
71 -105 71 -12 0 -40 -12 -63 -27 -50 -34 -196 -173 -274 -261 -49 -54 -58
-71 -58 -102 0 -30 8 -45 38 -76 l38 -39 -47 -95 c-26 -52 -57 -124 -69 -160
-27 -80 -35 -90 -72 -90 -16 0 -46 -9 -68 -20 -52 -26 -55 -46 -54 -295 1
-168 4 -206 18 -233 18 -35 76 -68 102 -58 8 3 14 2 14 -3 0 -5 8 -8 17 -7 12
1 22 -14 33 -49 9 -27 22 -63 28 -80 7 -16 18 -43 24 -60 6 -16 27 -58 45 -92
l33 -62 -40 -42 c-53 -56 -56 -88 -12 -154 38 -57 276 -290 317 -309 46 -22
81 -13 131 36 l42 40 54 -25 c30 -14 97 -40 149 -58 117 -40 132 -47 125 -64
-2 -7 -2 -16 1 -19 3 -3 7 -19 8 -36 5 -54 25 -87 65 -105 32 -14 68 -17 221
-17 190 1 227 7 262 46 20 22 26 43 29 106 l3 45 124 47 c69 26 140 55 158 65
l33 17 37 -36 c21 -19 49 -41 62 -48 30 -15 81 -6 112 21 97 84 191 176 250
247 59 71 69 89 69 121 0 31 -8 46 -40 80 -22 22 -40 43 -40 46 0 3 18 40 40
83 23 42 55 118 73 167 l32 90 45 5 c114 14 124 38 125 305 0 274 -7 292 -120
305 l-50 5 -32 90 c-17 50 -50 125 -73 169 l-40 78 40 44 c74 80 51 125 -157
320 -132 124 -158 144 -193 144 -29 0 -75 -28 -96 -59 -20 -29 -30 -27 -121
18 -43 21 -109 49 -148 61 -38 12 -76 27 -82 33 -8 5 -13 32 -13 61 0 108 -43
129 -265 132 -88 1 -179 -1 -201 -5z m335 -572 c14 -5 62 -20 106 -34 260 -82
471 -309 544 -585 16 -61 19 -102 17 -220 -2 -133 -5 -152 -33 -233 -42 -119
-113 -234 -203 -327 -104 -108 -195 -162 -360 -215 -114 -37 -320 -43 -430
-14 -104 28 -164 53 -241 100 -76 46 -192 155 -182 172 3 6 1 7 -5 3 -24 -14
-147 209 -179 324 -26 93 -25 350 1 435 43 141 120 270 219 367 103 100 206
160 357 208 75 24 101 27 224 27 76 0 150 -3 165 -8z"/>
<path d="M684 1618 c-6 -10 126 -205 195 -288 341 -407 735 -690 1263 -909
154 -64 338 -126 431 -146 47 -10 57 -10 57 1 0 8 -25 62 -54 121 -52 102 -91
191 -137 309 -18 47 -23 52 -77 73 -31 13 -91 37 -132 53 -128 51 -370 179
-490 260 -203 136 -395 303 -562 492 l-34 39 -228 1 c-125 0 -230 -2 -232 -6z"/>
</g>
</svg>
